<svg width="143" height="27" viewBox="0 0 143 27" fill="none" xmlns="http://www.w3.org/2000/svg">
<rect x="27.3916" y="6" width="1" height="16" fill="#301C6B"/>
<path d="M38.6416 9.276C39.5143 9.276 40.2849 9.463 40.9536 9.837C41.6223 10.211 42.1209 10.6133 42.4496 11.044L41.5486 12.744H41.4466C41.0953 12.2567 40.6703 11.86 40.1716 11.554C39.6729 11.248 39.1629 11.095 38.6416 11.095C38.1996 11.095 37.8539 11.197 37.6046 11.401C37.3553 11.605 37.2306 11.843 37.2306 12.115C37.2306 12.2963 37.2646 12.4437 37.3326 12.557C37.4006 12.6703 37.5989 12.8007 37.9276 12.948C38.2563 13.0953 38.7493 13.254 39.4066 13.424C40.5966 13.7187 41.4523 14.0813 41.9736 14.512C42.4949 14.9427 42.7556 15.5773 42.7556 16.416C42.7556 17.2547 42.4156 17.929 41.7356 18.439C41.0669 18.949 40.2113 19.204 39.1686 19.204C38.2393 19.204 37.4063 19.0283 36.6696 18.677C35.9443 18.3143 35.3833 17.8837 34.9866 17.385L35.9046 15.634H36.0066C36.3919 16.1213 36.8509 16.5237 37.3836 16.841C37.9163 17.1583 38.4716 17.317 39.0496 17.317C40.1829 17.317 40.7496 16.994 40.7496 16.348C40.7496 16.0533 40.6023 15.821 40.3076 15.651C40.0243 15.4697 39.3669 15.243 38.3356 14.971C37.2703 14.699 36.4883 14.342 35.9896 13.9C35.5023 13.4467 35.2586 12.846 35.2586 12.098C35.2586 11.316 35.5646 10.653 36.1766 10.109C36.7886 9.55367 37.6103 9.276 38.6416 9.276ZM49.1874 9.276C50.3661 9.276 51.3351 9.752 52.0944 10.704C52.8651 11.656 53.2504 12.846 53.2504 14.274C53.2504 15.7247 52.8878 16.909 52.1624 17.827C51.4371 18.745 50.4454 19.204 49.1874 19.204C48.6208 19.204 48.1051 19.085 47.6404 18.847C47.1871 18.609 46.8301 18.303 46.5694 17.929H46.5014V22.145H44.4614V9.48H46.1784L46.3314 10.738H46.3824C46.6204 10.3187 46.9774 9.973 47.4534 9.701C47.9408 9.41767 48.5188 9.276 49.1874 9.276ZM48.8474 11.146C48.0881 11.146 47.4931 11.435 47.0624 12.013C46.6318 12.591 46.4164 13.356 46.4164 14.308C46.4164 15.2147 46.6374 15.94 47.0794 16.484C47.5328 17.028 48.1278 17.3 48.8644 17.3C49.6124 17.3 50.1904 17.0223 50.5984 16.467C51.0064 15.9117 51.2104 15.1807 51.2104 14.274C51.2104 13.3673 51.0008 12.6193 50.5814 12.03C50.1734 11.4407 49.5954 11.146 48.8474 11.146ZM55.7186 10.687C56.5686 9.74633 57.617 9.276 58.8636 9.276C60.1103 9.276 61.1473 9.72933 61.9746 10.636C62.802 11.5427 63.2156 12.7157 63.2156 14.155L63.1986 14.852H56.5346C56.5573 15.5547 56.7953 16.1383 57.2486 16.603C57.702 17.0677 58.2913 17.3 59.0166 17.3C59.5946 17.3 60.1273 17.1413 60.6146 16.824C61.102 16.4953 61.476 16.127 61.7366 15.719H61.8386L62.7566 17.538C62.462 17.9573 61.9746 18.3427 61.2946 18.694C60.626 19.034 59.8666 19.204 59.0166 19.204C57.6113 19.204 56.495 18.7507 55.6676 17.844C54.8516 16.9373 54.4436 15.7417 54.4436 14.257C54.4436 12.8063 54.8686 11.6163 55.7186 10.687ZM60.4106 11.758C60.014 11.35 59.4983 11.146 58.8636 11.146C58.229 11.146 57.7133 11.3557 57.3166 11.775C56.92 12.1943 56.6763 12.6817 56.5856 13.237H61.0906C61.0453 12.659 60.8186 12.166 60.4106 11.758ZM69.6916 9.276C70.7909 9.276 71.6296 9.599 72.2076 10.245C72.7969 10.8797 73.0916 11.6843 73.0916 12.659V19H71.0516V13.22C71.0516 11.8373 70.4622 11.146 69.2836 11.146C68.5809 11.146 68.0142 11.4123 67.5836 11.945C67.1642 12.4777 66.9546 13.1973 66.9546 14.104V19H64.9146V9.48H66.6146L66.7506 10.738H66.8016C67.4589 9.76333 68.4222 9.276 69.6916 9.276ZM83.6075 19H81.9585L81.7375 17.742H81.6865C81.0745 18.7167 80.1169 19.204 78.8135 19.204C77.4989 19.204 76.4675 18.745 75.7195 17.827C74.9829 16.909 74.6145 15.7247 74.6145 14.274C74.6145 12.846 75.0169 11.656 75.8215 10.704C76.6262 9.752 77.6462 9.276 78.8815 9.276C79.4482 9.276 79.9695 9.395 80.4455 9.633C80.9215 9.85967 81.2842 10.1487 81.5335 10.5H81.5675V6.386H83.6075V19ZM79.1025 11.146C78.3319 11.146 77.7312 11.452 77.3005 12.064C76.8699 12.676 76.6545 13.4127 76.6545 14.274C76.6545 15.158 76.8642 15.8833 77.2835 16.45C77.7142 17.0167 78.3205 17.3 79.1025 17.3C79.8732 17.3 80.4852 17.028 80.9385 16.484C81.3919 15.9287 81.6185 15.2033 81.6185 14.308C81.6185 13.3787 81.3919 12.6193 80.9385 12.03C80.4965 11.4407 79.8845 11.146 79.1025 11.146ZM90.096 6.42C90.2773 6.23867 90.5323 6.148 90.861 6.148C91.1896 6.148 91.439 6.23867 91.609 6.42C91.7903 6.60133 91.881 6.85067 91.881 7.168C91.881 7.474 91.7903 7.71767 91.609 7.899C91.439 8.08033 91.1896 8.171 90.861 8.171C90.5323 8.171 90.2773 8.08033 90.096 7.899C89.926 7.71767 89.841 7.474 89.841 7.168C89.841 6.85067 89.926 6.60133 90.096 6.42ZM91.49 9.48V19.833C91.49 20.4903 91.3256 20.972 90.997 21.278C90.6683 21.5953 90.2546 21.754 89.756 21.754C89.28 21.754 88.8493 21.6463 88.464 21.431L88.651 20.224H88.702C89.0193 20.394 89.2913 20.479 89.518 20.479C89.9826 20.479 90.215 20.258 90.215 19.816V9.48H91.49ZM94.8023 10.738C95.641 9.76333 96.6893 9.276 97.9473 9.276C99.2053 9.276 100.248 9.769 101.075 10.755C101.914 11.7297 102.333 12.9197 102.333 14.325C102.333 15.7757 101.948 16.9543 101.177 17.861C100.407 18.7563 99.33 19.204 97.9473 19.204C96.576 19.204 95.4993 18.7507 94.7173 17.844C93.9466 16.9373 93.5613 15.7643 93.5613 14.325C93.5613 12.9083 93.975 11.7127 94.8023 10.738ZM100.208 11.571C99.653 10.8117 98.8993 10.432 97.9473 10.432C96.9953 10.432 96.236 10.8117 95.6693 11.571C95.114 12.3303 94.8363 13.2483 94.8363 14.325C94.8363 15.4243 95.1083 16.314 95.6523 16.994C96.2076 17.6627 96.9726 17.997 97.9473 17.997C98.9333 17.997 99.6983 17.6627 100.242 16.994C100.786 16.314 101.058 15.4243 101.058 14.325C101.058 13.237 100.775 12.319 100.208 11.571ZM111.435 19H110.33L110.143 17.674H110.092C109.832 18.116 109.463 18.4843 108.987 18.779C108.511 19.0623 107.956 19.204 107.321 19.204C106.313 19.204 105.542 18.9037 105.009 18.303C104.488 17.7023 104.227 16.8977 104.227 15.889V9.48H105.502V15.702C105.502 17.2433 106.154 18.014 107.457 18.014C108.228 18.014 108.868 17.742 109.378 17.198C109.9 16.6427 110.16 15.923 110.16 15.039V9.48H111.435V19ZM116.989 9.276C117.669 9.276 118.185 9.47433 118.536 9.871L118.264 11.231H118.213C117.839 10.8003 117.391 10.585 116.87 10.585C116.337 10.585 115.907 10.8513 115.578 11.384C115.261 11.9053 115.102 12.6647 115.102 13.662V19H113.827V9.48H114.898L115.068 10.738H115.102C115.215 10.4207 115.431 10.0977 115.748 9.769C116.077 9.44033 116.49 9.276 116.989 9.276ZM124.42 9.276C125.463 9.276 126.262 9.60467 126.817 10.262C127.384 10.9193 127.667 11.758 127.667 12.778V19H126.392V13.033C126.392 12.1943 126.205 11.554 125.831 11.112C125.457 10.6587 124.907 10.432 124.182 10.432C123.366 10.432 122.697 10.7493 122.176 11.384C121.655 12.0187 121.394 12.8573 121.394 13.9V19H120.119V9.48H121.224L121.377 10.789H121.428C122.108 9.78033 123.105 9.276 124.42 9.276ZM133.344 9.276C134.319 9.276 135.101 9.52533 135.69 10.024C136.291 10.5227 136.591 11.1913 136.591 12.03V19H135.503L135.316 17.742H135.282C134.613 18.7167 133.644 19.204 132.375 19.204C131.536 19.204 130.873 18.966 130.386 18.49C129.91 18.014 129.672 17.385 129.672 16.603C129.672 15.855 129.904 15.2373 130.369 14.75C130.834 14.2513 131.61 13.8943 132.698 13.679C133.775 13.4523 134.477 13.2087 134.806 12.948C135.146 12.6873 135.316 12.3417 135.316 11.911C135.316 11.4577 135.146 11.1007 134.806 10.84C134.466 10.568 133.979 10.432 133.344 10.432C132.698 10.432 132.126 10.6133 131.627 10.976C131.14 11.3273 130.76 11.8203 130.488 12.455H130.437L129.655 11.367C129.995 10.755 130.488 10.2563 131.134 9.871C131.791 9.47433 132.528 9.276 133.344 9.276ZM135.316 13.713H135.282C135.157 13.9283 134.936 14.1097 134.619 14.257C134.313 14.4043 133.775 14.5687 133.004 14.75C132.222 14.9313 131.678 15.1693 131.372 15.464C131.066 15.7473 130.913 16.1157 130.913 16.569C130.913 16.9997 131.049 17.351 131.321 17.623C131.604 17.895 131.99 18.031 132.477 18.031C133.18 18.031 133.826 17.8157 134.415 17.385C135.016 16.943 135.316 16.4103 135.316 15.787V13.713ZM140.27 19H138.995V6.386H140.27V19Z" fill="#301C6B"/>
<path d="M12.5339 12.654C12.3916 12.5111 12.3916 12.2804 12.5339 12.1374L15.1995 9.45732C15.3418 9.31436 15.5732 9.31436 15.7155 9.45732L21.1018 14.869C21.282 15.0578 21.3921 15.3132 21.3921 15.5972C21.3921 15.885 21.2782 16.1443 21.0923 16.3349L15.5638 21.8915C15.4955 21.9601 15.4025 22.0002 15.3057 22.0002H9.96882C9.76771 22.0002 9.60645 21.8362 9.60645 21.6361C9.60645 21.5293 9.65198 21.4321 9.72407 21.3654L15.2033 15.8565C15.2735 15.7859 15.3095 15.6925 15.3095 15.5991C15.3095 15.5038 15.2735 15.4104 15.2033 15.3418L12.5339 12.654Z" fill="#5D21D2"/>
<path d="M8.86008 15.3423C9.00237 15.4853 9.00237 15.7159 8.86008 15.8589L6.19447 18.539C6.05218 18.682 5.82071 18.682 5.67842 18.539L0.292174 13.1273C0.111937 12.9386 0 12.6832 0 12.3991C0 12.1113 0.113834 11.8521 0.299763 11.6614L5.8302 6.10675C5.8985 6.03812 5.99147 6 6.08822 6H11.4251C11.6263 6 11.7894 6.16393 11.7894 6.36599C11.7894 6.47274 11.7439 6.56805 11.6699 6.63477L6.19067 12.1437C6.12048 12.2142 6.08443 12.3076 6.08443 12.401C6.08443 12.4944 6.12237 12.5898 6.19067 12.6584C6.18878 12.6584 8.86008 15.3423 8.86008 15.3423Z" fill="#5D21D2"/>
</svg>
